# xmcd CD database file
#
# Track frame offsets:
#	150
#	21152
#	40369
#	65084
#	78225
#	99643
#	115491
#	139923
#	171704
#	192660
#	201439
#
# Disc length: 2888 seconds
#
# Revision: 0
# Processed by: cddbd v1.5.2PL0 Copyright (c) Steve Scherf et al.
# Submitted via: CDex 1.51
#
DISCID=ae0b460b
DTITLE=Dixieland Express - Souvenir
DYEAR=2008
DGENRE=Jazz
TTITLE0=Swing That Music
TTITLE1=Dapper Dan
TTITLE2=Buddy Bolden's Blues
TTITLE3=Midnight In Moscow
TTITLE4=Papa De Da Da
TTITLE5=Some Of These Days
TTITLE6=Burgundy St. Blues
TTITLE7=I Want A Little Girl
TTITLE8=Memphis Blues
TTITLE9=Liebstraum
TTITLE10=Bei Mir Bist Du Schon
EXTD=YEAR: 2008
EXTT0=
EXTT1=
EXTT2=
EXTT3=
EXTT4=
EXTT5=
EXTT6=
EXTT7=
EXTT8=
EXTT9=
EXTT10=
PLAYORDER=
